<svg version="1.0" xmlns="http://www.w3.org/2000/svg" width="832" height="832" viewBox="0 0 624 624"><path d="M0 9.5c0 .5 9.2 22.1 11.9 28 2.7 5.7 9.8 22.2 10.6 24.5.2.5 2.6 6 5.5 12.5 1 2.2 3.9 8.9 6.5 15 2.5 6 5.3 12.3 6 14 2.5 5.5 5.3 11.9 16.5 38 6.2 14.3 12 27.8 13 30 1 2.2 3.3 7.4 5 11.5 1.8 4.1 4 9.3 5 11.5 1.7 3.7 4.9 11.2 26.2 60.5 4.4 10.2 8.8 20.3 9.8 22.5 1 2.2 3.1 7.1 4.8 11 3.8 8.9 23.9 55.2 27.5 63.5.8 1.9 5.2 12 9.7 22.5 4.5 10.4 9.1 21 10.3 23.5 1.1 2.5 2.2 4.9 2.3 5.5.2.9 10.3 24.1 13.9 32 .7 1.6 7.3 16.7 14.5 33.5 7.3 16.8 15.3 35.4 18 41.5 2.6 6 8.5 19.5 13 30 9.3 21.5 14.3 33.1 17 39 1 2.2 3.7 8.5 6 14 4.4 10.4 9.1 20.8 9.5 21.3.1.2 5.2-2 11.1-4.9 6-2.8 13.8-6.4 17.4-8 3.6-1.6 8.1-3.8 10-4.9l3.5-1.9.3-43.8c.2-35.8 0-44.3-1.2-46.8-.8-1.6-2.8-6.4-4.6-10.5-1.8-4.1-4-9.3-5-11.5-1-2.2-4.2-9.4-7-16-4.9-11.2-26.7-61.1-30.6-70-.9-2.2-1.8-4.2-1.9-4.5-.4-1.2-2.6-6.4-4.6-10.8-3.2-7-5.3-11.9-8.9-20.2-1.8-4.1-4-9.3-5-11.5-1-2.2-6.3-14.6-11.9-27.5-5.6-12.9-10.8-24.9-11.5-26.5-.8-1.7-2.1-4.6-2.9-6.5-.8-1.9-5-11.4-9.2-21-4.2-9.6-8.7-20-10-23-1.3-3-6.6-15.2-11.8-27-5.2-11.8-13.8-31.6-19.2-44-5.3-12.4-10.5-24.3-11.5-26.5-1-2.2-3.9-9-6.5-15-2.6-6.1-5.8-13.3-7-16-1.3-2.8-7.3-16.7-13.5-31S108.6 57 107.3 54c-4.1-9.2-5-11.2-8.3-19-1.8-4.1-4.3-10-5.7-13-3-6.8-4-9-4.7-11.3C88.1 9.1 85.1 9 44 9 19.8 9 0 9.2 0 9.5zm378 18.7c-3.6 1-7.3 2-8.4 2.3-14.1 3.4-33.1 11.6-44.6 19.4-28 19-47.9 47.8-53.5 77.9-3.3 17.2-3.7 21.9-3.9 43.2-.1 27.9.8 34.1 8.2 57.5 1.4 4.4 3.2 9.6 4 11.5.8 1.9 1.4 3.6 1.3 3.7-.2.8 10.7 20.7 14.7 26.7 2.6 3.9 10.3 12.7 17.2 19.7 12 12.1 14.8 14.7 25.4 23.4 2.7 2.2 5.8 4.9 7.1 6 1.2 1.1 4.1 3.6 6.5 5.4 2.3 1.9 4.8 4 5.4 4.5.6.6 3.1 2.7 5.6 4.7 2.5 2 5.6 4.7 7 5.9 1.4 1.2 5.2 4.4 8.5 7.3 7.9 6.7 31.1 30 35.7 35.7 12.7 16 20.3 32.3 22.5 48.5.9 6.3.9 24.3.1 31.5-1.4 11.8-8.7 29.2-18 43.2-8.4 12.6-16 21.1-23.6 26.8-1.9 1.4-3.9 3-4.5 3.5-.7.6-3.6 2.6-6.4 4.5-2.9 1.8-5.4 3.8-5.4 4.4-.1.6-.2 10.5-.3 21.9l-.1 20.8 4-.7c2.2-.4 5.4-.8 7-1 3.9-.4 9.5-1.3 11.7-2 .9-.3 2.6-.7 3.9-.9 11.2-2.2 35.2-10.8 50.5-18.1 14.9-7.2 40-22.1 47.8-28.4 19.6-15.9 32.1-30.8 43.5-52.2 3.7-6.7 10.8-23.3 11.6-26.8.2-.8 1.3-4.9 2.4-9 1.1-4.1 2.3-8.9 2.6-10.5.3-1.7.8-4.1 1.1-5.5.3-1.4.7-9.3.9-17.5.4-12.8.1-16.7-2-27-5.6-28.6-15.2-48-34.5-70-5.7-6.5-30.9-31.5-38.9-38.5-12.9-11.4-16.5-14.5-17.6-15.3-.5-.4-2.1-1.7-3.5-2.8-3.1-2.6-7.4-6.1-16.5-13.5-3.8-3.1-8.6-6.9-10.5-8.5-1.9-1.6-7.8-6.3-13-10.5-25.1-20.2-42.2-37.4-52.8-53-4.6-6.8-10.9-20-11.3-23.6 0-.4-.5-2.2-1-4-2.9-9.7-3-36.2-.1-43.9.5-1.3 1-2.9 1.1-3.4.3-2.6 3.7-11.6 6.2-16.7 3.2-6.4 6.3-11 11-16.8l3.4-4V45.9c0-9.9-.2-18.3-.5-18.7-.3-.5-3.4 0-7 1z"/><path d="M391.8 31.4c-.1 2.5 0 5.9.3 7.5.4 1.7.4 3.1 0 3.1-.3 0-.6 6.9-.6 15.4v15.3l12.7-.1c7.1 0 12.8-.3 12.9-.6 1.1-7.8 1.8-9.9 4.7-12.5l2.7-2.5h72.3l2.6 3.5c1.5 2 2.9 5.2 3.1 7.3.1 2 .3 4 .4 4.3.2 1.1 25.1.6 25.2-.5 0-.6.1-10.9.3-22.9l.3-21.7H392.2l-.4 4.4zm147.5-3.6c-2.4.2-4.3.6-4.4 1-.1.4-.3 4.1-.5 8.2s-.5 10.3-.7 13.8l-.4 6.4 3.9 1.5c2.1.8 4.7 2.7 5.7 4.2 5.1 7.1 6.7 24 3.7 38.9-.5 2.7-1.5 9.1-2.2 14.7-.2 1.6-.6 4.3-.9 6-.2 1.6-.6 5-.7 7.4l-.3 4.4 10.5.3c5.8.2 18.2.5 27.7.8l17.2.5 1-3.2c1.1-3.4 10.9-42.5 11.7-46.7.3-1.4 1.6-7 2.9-12.5 1.4-5.5 4.1-17 6-25.5 2-8.5 3.7-16.3 4-17.2.6-2.8.6-2.8-12.5-2.9h-7c-.8.1-4 0-7 0-3-.1-6.2-.1-7 0-.8.1-2.8.1-4.5.1-21.7-.4-42.9-.4-46.2-.2z"/></svg>