<svg xmlns="http://www.w3.org/2000/svg" width="156.169" height="151.575" viewBox="0 0 3070.29 2979.98" shape-rendering="geometricPrecision" text-rendering="geometricPrecision" image-rendering="optimizeQuality" fill-rule="evenodd" clip-rule="evenodd"><defs><style>.str0{stroke:#2b2a29;stroke-width:14.86;stroke-miterlimit:22.9256}.fil1{fill:#ec3482}</style></defs><g id="Layer_x0020_1"><g id="_1875326398560"><path class="str0" d="M2095.08 229h344.72c2.18 0 4.39 0 8.82 3.44 2.86 2.2 6.63 5.82 10.31 9.84 2.05 2.23 4.07 4.59 5.89 6.9 5.09 6.44 8.61 12.5 10.88 18.5 2.27 6 3.29 11.95 3.75 18.29.12 1.64.2 3.31.25 5.01.16 4.82.09 9.79.01 14.77h111.07c1.13-70.07 2.25-140.16 3.4-210.23h-657.61l-2.46 210.23h112.48c.34-4.71.71-9.45 1.13-14.72.02-.35.05-.7.08-1.05.46-5.71 1-12.08 2.68-18.22 1.66-6.13 4.47-12.03 7.65-16.89 3.2-4.87 6.78-8.71 10.86-12.08 4.08-3.36 8.65-6.25 13.08-8.46 4.05-2.02 7.97-3.49 11.89-4.9.39-.14.77-.27 1.11-.42z"/><path class="fil1 str0" d="M1516.81 1349.28c40.73 44.65 91.02 89.7 153.69 142.54 62.67 52.82 137.7 113.46 197.33 165.46 59.64 52.02 103.88 95.43 140.74 135.57 36.86 40.14 66.36 77 90.93 120.01 24.59 43.01 44.25 92.16 54.08 141.31 9.82 49.15 9.82 98.29 8.19 134.34-1.64 36.04-4.92 58.98-13.52 89.7-8.59 30.73-22.53 69.22-42.19 107.72-19.65 38.51-45.05 77.02-69.62 108.96-24.56 31.94-48.33 57.33-75.76 80.27-27.45 22.94-58.58 43.42-89.72 63.87v199.07c34.4-4.91 68.81-9.83 103.61-17.2 34.82-7.37 70.04-17.2 114.28-31.94 44.23-14.74 97.47-34.39 158.51-64.3 61.02-29.91 129.84-70.04 183.91-106.5 54.06-36.44 93.38-69.22 131.88-111 38.5-41.77 76.18-92.56 106.9-145.4 30.71-52.82 54.47-107.72 72.49-165.88 18.02-58.16 30.31-119.59 33.59-176.53 3.28-56.93-2.45-109.36-11.47-156.47-9.01-47.1-21.3-88.87-34.4-124.51-13.11-35.64-27.03-65.13-48.74-99.13-21.7-34-51.19-72.5-82.33-108.55-31.11-36.04-63.88-69.64-99.52-104.44-35.63-34.83-74.14-70.85-116.73-108.13-42.6-37.26-89.29-75.78-136.4-113.86-47.1-38.1-94.61-75.78-138.03-111-43.41-35.24-82.73-68-115.09-97.07-32.35-29.08-57.74-54.47-83.55-83.97-25.81-29.49-52.02-63.07-73.32-96.26-21.3-33.18-37.68-65.95-48.74-103.63-11.05-37.68-16.79-80.27-17.6-123.69-.82-43.42 3.29-87.65 14.34-130.24s29.09-83.56 47.51-115.09c18.44-31.54 37.28-53.66 56.12-75.78V95.51c-68.82 18.02-137.63 36.04-201.94 65.95-64.3 29.89-124.11 71.67-176.53 122.87s-97.47 111.84-128 181.26c-30.51 69.42-46.48 147.65-54.47 233.47-8 85.8-8 179.2 7.77 266.65 15.78 87.45 47.33 168.95 78.65 231.82 31.33 62.86 62.46 107.1 103.17 151.74zM11.29 9.93c428.02 986.69 856.04 1973.39 1284.07 2960.08 65.55-30.71 131.08-61.44 196.61-92.16v-423.92C1136.44 1638.44 780.92 822.95 425.4 7.47c-138.04.82-276.07 1.64-414.1 2.47z"/><path class="fil1 str0" d="M11.29 9.93c428.02 986.69 856.04 1973.39 1284.07 2960.08 65.55-30.71 131.08-61.44 196.61-92.16v-423.92C1136.44 1638.44 780.92 822.95 425.4 7.47c-138.04.82-276.07 1.64-414.1 2.47zm1505.52 1339.35c40.73 44.65 91.02 89.7 153.69 142.54 62.67 52.82 137.7 113.46 197.33 165.46 59.64 52.02 103.88 95.43 140.74 135.57 36.86 40.14 66.36 77 90.93 120.01 24.59 43.01 44.25 92.16 54.08 141.31 9.82 49.15 9.82 98.29 8.19 134.34-1.64 36.04-4.92 58.98-13.52 89.7-8.59 30.73-22.53 69.22-42.19 107.72-19.65 38.51-45.05 77.02-69.62 108.96-24.56 31.94-48.33 57.33-75.76 80.27-27.45 22.94-58.58 43.42-89.72 63.87v199.07c34.4-4.91 68.81-9.83 103.61-17.2 34.82-7.37 70.04-17.2 114.28-31.94 44.23-14.74 97.47-34.39 158.51-64.3 61.02-29.91 129.84-70.04 183.91-106.5 54.06-36.44 93.38-69.22 131.88-111 38.5-41.77 76.18-92.56 106.9-145.4 30.71-52.82 54.47-107.72 72.49-165.88 18.02-58.16 30.31-119.59 33.59-176.53 3.28-56.93-2.45-109.36-11.47-156.47-9.01-47.1-21.3-88.87-34.4-124.51-13.11-35.64-27.03-65.13-48.74-99.13-21.7-34-51.19-72.5-82.33-108.55-31.11-36.04-63.88-69.64-99.52-104.44-35.63-34.83-74.14-70.85-116.73-108.13-42.6-37.26-89.29-75.78-136.4-113.86-47.1-38.1-94.61-75.78-138.03-111-43.41-35.24-82.73-68-115.09-97.07-32.35-29.08-57.74-54.47-83.55-83.97-25.81-29.49-52.02-63.07-73.32-96.26-21.3-33.18-37.68-65.95-48.74-103.63-11.05-37.68-16.79-80.27-17.6-123.69-.82-43.42 3.29-87.65 14.34-130.24s29.09-83.56 47.51-115.09c18.44-31.54 37.28-53.66 56.12-75.78V95.51c-68.82 18.02-137.63 36.04-201.94 65.95-64.3 29.89-124.11 71.67-176.53 122.87s-97.47 111.84-128 181.26c-30.51 69.42-46.48 147.65-54.47 233.47-8 85.8-8 179.2 7.77 266.65 15.78 87.45 47.33 168.95 78.65 231.82 31.33 62.86 62.46 107.1 103.17 151.74z"/><path class="str0" d="M1516.81 1349.28c40.73 44.65 91.02 89.7 153.69 142.54 62.67 52.82 137.7 113.46 197.33 165.46 59.64 52.02 103.88 95.43 140.74 135.57 36.86 40.14 66.36 77 90.93 120.01 24.59 43.01 44.25 92.16 54.08 141.31 9.82 49.15 9.82 98.29 8.19 134.34-1.64 36.04-4.92 58.98-13.52 89.7-8.59 30.73-22.53 69.22-42.19 107.72-19.65 38.51-45.05 77.02-69.62 108.96-24.56 31.94-48.33 57.33-75.76 80.27-27.45 22.94-58.58 43.42-89.72 63.87v199.07c34.4-4.91 68.81-9.83 103.61-17.2 34.82-7.37 70.04-17.2 114.28-31.94 44.23-14.74 97.47-34.39 158.51-64.3 61.02-29.91 129.84-70.04 183.91-106.5 54.06-36.44 93.38-69.22 131.88-111 38.5-41.77 76.18-92.56 106.9-145.4 30.71-52.82 54.47-107.72 72.49-165.88 18.02-58.16 30.31-119.59 33.59-176.53 3.28-56.93-2.45-109.36-11.47-156.47-9.01-47.1-21.3-88.87-34.4-124.51-13.11-35.64-27.03-65.13-48.74-99.13-21.7-34-51.19-72.5-82.33-108.55-31.11-36.04-63.88-69.64-99.52-104.44-35.63-34.83-74.14-70.85-116.73-108.13-42.6-37.26-89.29-75.78-136.4-113.86-47.1-38.1-94.61-75.78-138.03-111-43.41-35.24-82.73-68-115.09-97.07-32.35-29.08-57.74-54.47-83.55-83.97-25.81-29.49-52.02-63.07-73.32-96.26-21.3-33.18-37.68-65.95-48.74-103.63-11.05-37.68-16.79-80.27-17.6-123.69-.82-43.42 3.29-87.65 14.34-130.24s29.09-83.56 47.51-115.09c18.44-31.54 37.28-53.66 56.12-75.78V95.51c-68.82 18.02-137.63 36.04-201.94 65.95-64.3 29.89-124.11 71.67-176.53 122.87s-97.47 111.84-128 181.26c-30.51 69.42-46.48 147.65-54.47 233.47-8 85.8-8 179.2 7.77 266.65 15.78 87.45 47.33 168.95 78.65 231.82 31.33 62.86 62.46 107.1 103.17 151.74zm-24.84 1104.64C1136.44 1638.43 780.92 822.94 425.4 7.46 287.36 8.28 149.33 9.1 11.3 9.93c428.02 986.69 856.04 1973.39 1284.07 2960.08 65.55-30.71 131.08-61.44 196.61-92.16v-423.92z" fill="#fff"/><path class="fil1 str0" d="M1867.84 1657.29c59.64 52.02 103.88 95.43 140.74 135.57 36.86 40.14 66.36 77 90.93 120.01 24.59 43.01 44.25 92.16 54.08 141.31 9.82 49.15 9.82 98.29 8.19 134.34-1.64 36.04-4.92 58.98-13.52 89.7-8.59 30.73-22.53 69.22-42.19 107.72-19.65 38.51-45.05 77.02-69.62 108.96-24.56 31.94-48.33 57.33-75.76 80.27-27.45 22.94-58.58 43.42-89.72 63.87v199.07c34.4-4.91 68.81-9.83 103.61-17.2 34.82-7.37 70.04-17.2 114.28-31.94 44.23-14.74 97.47-34.39 158.51-64.3 61.02-29.91 129.84-70.04 183.91-106.5 54.06-36.44 93.38-69.22 131.88-111 38.5-41.77 76.18-92.56 106.9-145.4 30.71-52.82 54.47-107.72 72.49-165.88 18.02-58.16 30.31-119.59 33.59-176.53 3.28-56.93-2.45-109.36-11.47-156.47-9.01-47.1-21.3-88.87-34.4-124.51-13.11-35.64-27.03-65.13-48.74-99.13-21.7-34-51.19-72.5-82.33-108.55-31.11-36.04-63.88-69.64-99.52-104.44-35.63-34.83-74.14-70.85-116.73-108.13-42.6-37.26-89.29-75.78-136.4-113.86-47.1-38.1-94.61-75.78-138.03-111-43.41-35.24-82.73-68-115.09-97.07-32.35-29.08-57.74-54.47-83.55-83.97-25.81-29.49-52.02-63.07-73.32-96.26-21.3-33.18-37.68-65.95-48.74-103.63-11.05-37.68-16.79-80.27-17.6-123.69-.82-43.42 3.29-87.65 14.34-130.24s29.09-83.56 47.51-115.09c18.44-31.54 37.28-53.66 56.12-75.78V95.52c-68.82 18.02-137.63 36.04-201.94 65.95-64.3 29.89-124.11 71.67-176.53 122.87s-97.47 111.84-128 181.26c-30.51 69.42-46.48 147.65-54.47 233.47-8 85.8-8 179.2 7.77 266.65 15.78 87.45 47.33 168.95 78.65 231.82 31.33 62.86 62.46 107.1 103.17 151.74 40.73 44.65 91.02 89.7 153.69 142.54 62.67 52.82 137.7 113.46 197.33 165.46zm832.22-1219.61c-18.78 116.39-25.73 171.42-25.73 171.42l262.78 7.37s46.63-170.6 123.91-515.5c-281.83-.31-422.73-.45-422.73-.45-3.95 87.77-5.91 131.66-5.91 131.66 83.86 16.8 75.94 148.96 67.69 205.51z"/><path class="str0" d="M1491.97 2453.92C1136.44 1638.43 780.92 822.94 425.4 7.46 287.36 8.28 149.33 9.1 11.3 9.93c428.02 986.69 856.04 1973.39 1284.07 2960.08 65.55-30.71 131.08-61.44 196.61-92.16v-423.92z" fill="#1f1b20"/></g></g></svg>